<svg viewBox="0 0 283.4 283.4" xmlns="http://www.w3.org/2000/svg"><path d="m283.4 141.7c0 131.42-10.28 141.7-141.7 141.7-131.42 0-141.7-10.28-141.7-141.7s10.28-141.7 141.7-141.7 141.7 10.28 141.7 141.7z" fill="#fff"/><path d="m253.83 233.56c.15 4.53-3.29 8.29-7.61 8.29-4.32 0-7.75-3.77-7.61-8.29l2.57-78.43c.02-.72-.44-1.39-1.18-1.69-2.73-1.09-5.45-3.5-6.03-8.72-1.23-11.16-1.03-102.8 16.86-103.17 0 0 2.83 0 2.98 2.11l.71 105.2c0 3.58-1.99 3.19-1.92 5.2l1.2 79.49zm-209.87-149.93s-.06 0-.08 0c-.03 0-.05 0-.08 0s-.06 0-.08-.01c-.03 0-.07-.01-.1-.02-.02 0-.04-.01-.06-.02-.28-.09-.57-.28-.88-.61-.18-.24-.27-.53-.28-.83l-.66-39.4c-.01-.6-.46-1.13-1.06-1.17-.64-.04-1.18.46-1.19 1.1l-.97 38.68c-.01.5-.28.97-.72 1.22-.53.3-.99.25-1.35.09-.51-.22-.82-.74-.84-1.29l-.97-38.01c-.01-.41-.19-.79-.5-1.05-.44-.37-1.07-.45-1.6-.15-.42.23-.67.67-.72 1.15-4.99 52.93-2.15 56.48-2.15 56.48.48 2.83 6.8 9.19 9.49 11.79.53.51.81 1.21.79 1.93l-3.58 119.28c-.15 4.95 3.29 9.07 7.61 9.07s7.75-4.12 7.61-9.07l-3.58-119.28c-.02-.72.26-1.42.79-1.93 2.69-2.6 9.01-8.97 9.49-11.79 0 0 2.84-3.55-2.15-56.48-.04-.47-.3-.92-.72-1.15-.53-.29-1.16-.22-1.6.15-.31.26-.49.64-.5 1.05l-.97 38.01c-.01.55-.33 1.06-.84 1.29-.36.16-.82.21-1.35-.09-.44-.25-.71-.72-.72-1.22l-.97-38.68c-.02-.63-.55-1.13-1.19-1.1-.6.04-1.05.57-1.06 1.17l-.66 39.4c0 .3-.1.59-.28.83-.3.33-.6.52-.88.61-.02 0-.04.01-.06.02-.03 0-.07.02-.1.02s-.06 0-.08.01c-.03 0-.05 0-.08 0s-.06 0-.08 0h-.02zm185.37 63.94c0 47.71-38.67 86.38-86.38 86.38s-86.38-38.67-86.38-86.38 38.67-86.38 86.38-86.38 86.38 38.67 86.38 86.38zm-40.45 0c0-12.27-4.78-23.8-13.45-32.48-4.21-4.21-9.09-7.5-14.4-9.78.43-5.69.84-10.62 1.22-14.41.49-3.65.77-7.24.77-9.85v-.21c-.19-5.48-3.22-9.78-8.53-12.09-3.17-1.38-7.09-2.05-11.97-2.05s-8.93.73-12.15 2.17c-5.24 2.34-8.24 6.71-8.24 12 0 2.27.37 5.59.69 8.53.07.62.13 1.21.19 1.75s0 .03 0 .03c.43 3.89.86 8.8 1.28 14.39-5.09 2.26-9.77 5.47-13.82 9.52-8.67 8.68-13.45 20.21-13.45 32.48s4.78 23.8 13.45 32.48c5.05 5.05 11.08 8.78 17.65 11.02-3.94 3.88-6.32 9.41-6.32 15.73 0 12.53 8.81 21.63 20.94 21.63 5.91 0 11.32-2.17 15.24-6.1 3.95-3.96 6.12-9.48 6.12-15.53s-2.16-11.31-6.09-15.32c-.12-.13-.25-.25-.38-.37 6.63-2.22 12.7-5.97 17.79-11.06 8.67-8.68 13.45-20.21 13.45-32.48zm-39.1 45.43c-2.08-1.05-4.46-1.63-7.04-1.63s-4.86.57-6.86 1.59c-4.87 2.48-7.92 7.63-7.92 13.84 0 9.19 6.09 15.47 14.78 15.47s15.2-6.28 15.2-15.47c0-6.18-3.21-11.31-8.16-13.8zm-7.27-120.14c-6.74 0-14.24 1.69-14.24 8.01 0 2.37.54 6.69.85 9.63.39 3.56.78 7.94 1.17 12.89.06.7.11 1.41.16 2.13 1.53 20.11 3.07 48.51 4.82 69.53h14.65c1.69-21.15 3.42-49.8 4.92-69.69.05-.72.11-1.43.16-2.13.39-5.11.77-9.56 1.12-13.04.46-3.39.73-6.76.73-9.13-.23-6.82-7.88-8.2-14.34-8.2z" fill="#f2b849"/></svg>