<svg viewBox="0 0 283.4 283.4" xmlns="http://www.w3.org/2000/svg"><path d="m283.4 141.7c0 131.42-10.28 141.7-141.7 141.7s-141.7-10.28-141.7-141.7 10.28-141.7 141.7-141.7 141.7 10.28 141.7 141.7z" fill="#fff"/><path d="m253.83 233.56c.15 4.53-3.29 8.29-7.61 8.29-4.32 0-7.75-3.77-7.61-8.29l2.57-78.43c.02-.72-.44-1.39-1.18-1.69-2.73-1.09-5.45-3.5-6.03-8.72-1.23-11.16-1.03-102.8 16.86-103.17 0 0 2.83 0 2.98 2.11l.71 105.2c0 3.58-1.99 3.19-1.92 5.2l1.2 79.49zm-63.68-158.35-29.81 29.82c-5.45-2.23-11.33-3.39-17.39-3.39s-11.94 1.17-17.39 3.39l-29.81-29.82c13.57-8.87 29.79-14.03 47.21-14.03s33.64 5.16 47.21 14.03zm0 144.7c-13.57 8.87-29.79 14.03-47.21 14.03s-33.64-5.16-47.21-14.03l29.81-29.81c5.45 2.23 11.33 3.39 17.39 3.39s11.94-1.17 17.39-3.39l29.81 29.81zm-93.13-72.35c0 6.06 1.17 11.94 3.39 17.39l-29.82 29.81c-8.87-13.57-14.03-29.79-14.03-47.21s5.16-33.63 14.03-47.2l29.82 29.81c-2.23 5.45-3.39 11.33-3.39 17.39zm132.31 0c0 17.42-5.16 33.64-14.03 47.21l-29.82-29.81c2.23-5.45 3.39-11.33 3.39-17.39s-1.17-11.94-3.39-17.39l29.82-29.81c8.87 13.57 14.03 29.78 14.03 47.2zm-106.49 4.21-18.24 18.23-28.13 28.13-14.16 14.15c-.66.66-.66 1.74 0 2.41l13.49 13.49c.33.33.77.5 1.2.5s.87-.17 1.2-.5l42.28-42.28 18.23-18.23-15.9-15.9zm100.73-71.34-13.49-13.49c-.33-.33-.77-.5-1.2-.5s-.87.17-1.2.5l-14.15 14.15-28.13 28.13-18.24 18.24 15.9 15.9 60.52-60.52c.66-.66.66-1.74 0-2.41zm0 131.86-82.72-82.72-2.11-2.11-18.24-18.24-42.28-42.28c-.33-.33-.77-.5-1.2-.5s-.87.17-1.2.5l-13.49 13.49c-.66.67-.66 1.74 0 2.41l14.15 14.15 28.13 28.13 18.24 18.24 22.21 22.21 20.34 20.34 28.13 28.13 14.15 14.15c.33.33.77.5 1.2.5s.87-.17 1.2-.5l13.49-13.49c.66-.67.66-1.74 0-2.41zm-179.61-128.66s-.06 0-.08 0c-.03 0-.05 0-.08 0s-.06 0-.08-.01c-.03 0-.07-.01-.1-.02-.02 0-.04-.01-.06-.02-.28-.09-.57-.28-.88-.61-.18-.24-.27-.53-.28-.83l-.66-39.4c-.01-.6-.46-1.13-1.06-1.17-.64-.04-1.18.46-1.19 1.1l-.97 38.68c-.01.5-.28.97-.72 1.22-.53.3-.99.25-1.35.09-.51-.22-.82-.74-.84-1.29l-.97-38.01c-.01-.41-.19-.79-.5-1.05-.44-.37-1.07-.45-1.6-.15-.42.23-.67.67-.72 1.15-4.99 52.93-2.15 56.48-2.15 56.48.48 2.83 6.8 9.19 9.49 11.79.53.51.81 1.21.79 1.93l-3.58 119.28c-.15 4.95 3.29 9.07 7.61 9.07s7.75-4.12 7.61-9.07l-3.58-119.28c-.02-.72.26-1.42.79-1.93 2.69-2.6 9.01-8.97 9.49-11.79 0 0 2.84-3.55-2.15-56.48-.04-.47-.3-.92-.72-1.15-.53-.29-1.16-.22-1.6.15-.31.26-.49.64-.5 1.05l-.97 38.01c-.01.55-.33 1.06-.84 1.29-.36.16-.82.21-1.35-.09-.44-.25-.71-.72-.72-1.22l-.97-38.68c-.02-.63-.55-1.13-1.19-1.1-.6.04-1.05.57-1.06 1.17l-.66 39.4c0 .3-.1.59-.28.83-.3.33-.6.52-.88.61-.02 0-.04.01-.06.02-.03 0-.07.02-.1.02s-.06 0-.08.01c-.03 0-.05 0-.08 0s-.06 0-.08 0" fill="#955321"/></svg>