<?xml version="1.0" encoding="UTF-8"?>
<svg id="Layer_2" xmlns="http://www.w3.org/2000/svg" viewBox="0 0 283.4 283.4">
  <g id="Layer_1-2" data-name="Layer_1">
    <g>
      <path d="M283.4,141.7c0,131.42-10.28,141.7-141.7,141.7S0,273.12,0,141.7,10.28,0,141.7,0s141.7,10.28,141.7,141.7Z" style="fill: #fff;"/>
      <path d="M127.35,102.98c4.74,2.32,9.35,5.01,14.27,6.85,6.04,2.27,12.34,3.83,18.52,5.69.48.14.96.27,1.43.44,2.65.99,2.76,1.82.72,3.73-12.41,11.57-24.86,23.1-35.25,36.61-3.09,4.01-6.24,7.97-9.34,11.96-.32.41-.51.92-.38,1.7.7-.65,1.38-1.32,2.09-1.96,12.53-11.17,25.05-22.36,37.63-33.48,3.73-3.3,7.64-6.41,11.52-9.55.58-.47,1.43-.61,2.15-.91.2.74.64,1.52.55,2.23-1.35,11.22-1.07,22.4.81,33.53.3,1.79.96,3.52,1.61,5.86.62-4.56,1.13-8.59,1.71-12.6,1.24-8.63,2.5-17.25,3.79-25.87.36-2.37.82-4.73,1.33-7.08.77-3.53,2.16-6.54,5.01-9.18,5.72-5.29,12.08-9.61,18.62-13.73,1.87-1.18,3.46-1.03,5.12.62,5.13,5.09,10.69,9.77,15.49,15.14,9.27,10.37,15.11,22.43,16.13,36.52.02.33.02.67.02,1,.05,3.92-.36,4.21-4.05,3.23-7.48-1.98-14.98-3.92-22.47-5.86-.93-.24-1.88-.35-3.47-.64,1.19,2.26,2.03,3.98,2.99,5.64,6.67,11.62,12.25,23.66,12.85,37.32.19,4.34-1.2,8.51-3.39,12.34-.96,1.68-2.44,2.17-4.02,1.26-3.23-1.85-6.41-3.8-9.45-5.94-1.38-.98-2.37-2.52-3.99-4.3-.55,3.52-1.01,6.25-1.4,8.98-1.79,12.51-3.48,25.05-7.28,37.16-.61,1.93-2.14,3.57-3.24,5.35-1.49-1.19-3.23-2.17-4.42-3.6-3.82-4.6-7.57-9.28-11.06-14.13-1.76-2.45-2.91-5.34-4.53-8.41-1.89,2.32-3.55,4.55-5.42,6.58-1.74,1.88-3.65,3.62-5.61,5.28-1.44,1.22-2.55,1.04-3.4-.96-4.35-10.26-6.69-21.05-8.41-31.98-.49-3.15-.08-6.45-.08-9.68l-.72-.26c-1.09,1.77-2.22,3.52-3.25,5.32-5.88,10.25-11.96,20.36-19.55,29.47-1.37,1.64-3.12,2.99-4.84,4.28-1.46,1.09-2.88.93-4.06-.74-4.88-6.93-10.02-13.7-12.93-22.06-3.07,1.89-5.95,3.79-8.94,5.49-7.56,4.29-15.39,7.97-24.17,8.83-8.68.85-8.47.07-6.39-7.22,3.14-10.99,7.31-21.55,13.43-31.27,1.34-2.14,1.08-2.69-1.37-3.56-5.73-2.03-11.55-3.86-16.42-7.71-.52-.41-1.11-.75-1.63-1.15-4.07-3.12-4.18-4.5-.44-7.84,8.63-7.71,17.77-14.75,27.79-20.59,3.41-1.99,7.07-3.57,11.1-5.57-2.98-.24-5.5-.38-8-.64-6.53-.68-13.14-.97-19.56-2.25-5.05-1.01-10.02-2.92-14.72-5.1-3.29-1.53-3.47-3.12-1.69-6.32,1.97-3.55,4.18-6.97,6.43-10.35.98-1.47,1.2-2.22-.66-3.23-5.48-2.97-10.86-6.11-16.18-9.36-1.6-.98-2.98-2.41-4.25-3.81-1.34-1.47-1.28-2.95.53-4.2,6.25-4.3,13.18-7.18,20.49-8.85,5.15-1.17,10.51-1.4,15.78-2.05.71-.09,1.42-.19,2.24-.3-.62-4.17-1.2-8.1-1.8-12.02-1.21-7.87-.48-9.08,7.23-8.58,10.1.66,20.25,1.37,30.06,4.23,1.58.46,3.08,1.27,4.54,2.05,1.67.9,2.65.57,3.11-1.31,1.6-6.53,3.35-13.03,4.78-19.6.84-3.82.61-3.87,4.35-3.12,11.58,2.3,22.26,6.8,31.91,13.56,10.16,7.12,17.75,16.45,22.94,27.74,1.18,2.57,1.52,2.54,3.79.93,9.89-7.01,19.66-14.2,29.78-20.87,4.1-2.7,8.93-4.34,13.54-6.2.95-.38,2.79.04,3.51.77,2.44,2.48,4.66,5.2,6.77,7.98,1.38,1.81.84,2.44-1.28,3.42-8.73,4.02-17.59,7.83-26.04,12.38-7.07,3.81-13.83,8.3-20.38,12.97-5.34,3.8-10.65,7.85-15.1,12.61-4.92,5.26-10.42,6.1-16.92,4.94-7.43-1.33-14.92-2.4-22.34-3.76-3.84-.71-7.61-1.82-11.41-2.73-.78-.19-1.58-.31-2.37-.47-.12.32-.23.65-.35.97Z" style="fill: #955321;"/>
    </g>
  </g>
</svg>