<svg viewBox="0 0 283.4 283.4" xmlns="http://www.w3.org/2000/svg"><path d="m283.4 141.7c0 131.42-10.28 141.7-141.7 141.7-131.42 0-141.7-10.28-141.7-141.7s10.28-141.7 141.7-141.7 141.7 10.28 141.7 141.7z" fill="#fff"/><path d="m187.47 112.15c.33 2.14.75.79 2.25 6.02 1.45 5.06.56 15.57-1.18 21.58-.74 2.55-.98 5.8-4.51 7.49-3.41 1.63-8.05-.07-9.63-.41-10.79-2.34-10.53 4.52-6.27 14.7.89 2.14-1.59 3.94-3.77 4.72-3.18 1.14-1.54 3.05-3.3 4.57-1.49 1.29-3.26 1.81-5.18 1.41-1.08-.23-2.01-2.33-2.12-2.47-.66-.84-1.33-.7-1.76.15-.47.93.6 5.86-6.89 5.46-2.49-.13-2.56-2.71-3.1-4.33-.47-1.42-1.46-1.39-1.7-.66-.67 2.03-.91 4.82-3.4 5.01-2.48.18-6.34-.69-6.49-3.51-.04-.76-.33-1.51-.57-2.25-.18-.54-.89-.7-1.27-.23-1.12 1.36-1.2 2.86-3.15 2.96-1.96.1-5.07-.96-5.42-3.26-.37-2.41-.99-2.31-2.42-2.88-6.32-2.55-3.02-5.28-1.74-10.64 1.12-4.74 1.34-9.08-3.75-9.06-8.49.02-15.45 5.85-18.44-6.25-5.82-23.58 2.24-24.84.51-31.3-.83-3.12-5.77-14.07-4.09-31.93 4.03-42.86 79.3-46.3 97.44-13.51 11.13 20.11-.6 45.02-.05 48.63zm-23.1.69s-12.75-1.01-15.52 5.02c-3.56 7.74 2.22 10.92 6.73 14.16 12.75 9.18 27.28 5.56 25.72-10.53-.31-3.22-1.39-5.14-5.29-6.77-5.26-2.2-7.42-1.88-11.64-1.88zm-51.72 23.97c5.98.87 14.04-4.88 18.8-8.6 4.3-3.36 5-14.1-7.35-15.14-8.73-.73-23.37-.37-23.34 8.38.03 9.21 2.68 15.36 11.89 15.36zm36.3 10.34c-1.26-5.59-3.75-13-7.39-17.43-1.7-2.07-6.58 9.4-8.39 17.17-.27 1.17-.16 1.66 1.82 3.02 1.66 1.14 2.93.34 4.11-1.03 3.46-4.01 3.4 2.74 7.21 1.39.36-.13.67-.36 1.02-.53 1.06-.53 1.77-1.26 1.64-2.59zm43.91 37.45c8.82-2.64 13.28-4.22 25.24-2.27 9.04 1.47 10.31.91 14.84-10.73 1.05-2.7-.87-6.75-5.74-7.85-4.57-1.04-5.04-1.43-5.01-2.73.09-3.55 2.97-7.38-2.73-10.37-10.74-5.64-13.31 4.62-19.85 12.95-2.33 2.97-2.14 4.62-52.84 23.03-6.74 2.45-2.23 3.05-19.53-3.18-43.2-15.56-41.98-15.12-52.85-26.16-.96-.97-5.04-6.27-8.56-5.55-2.21.45-5.12 1.5-7.56 2.9-3.91 2.23-4.64 3.5-4.65 6.44 0 2.03.62 3.47 4.04 7.83 1.59 2.02-1.14 3.16-3.56 5.28-3.43 3-.94 6.88.25 8.93 4.27 7.35 12.75 3.03 18.5 1.29 8.1-2.45 10.65-1.74 35.87 6.88 12.14 4.15 12.51 3.61 12.51 4.38 0 .34-36.26 13.21-40.9 13.39-16.58.65-17.1-1.45-21.66-.93-5 .56-8.06 9.97-8.45 12.46-.3 1.88 1.4 5.14 4.65 6.25 3.01 1.02 6.01 1.12 6.26 2.46.34 1.8-.56 4.51-.69 5.73-.44 4.1 4.4 6.42 8.25 6.8 8.8.87 10.7-11.85 17.76-17.03 3.82-2.8 6.68-3.59 12.76-6.07 17.74-7.21 38.56-14.82 39.95-15.37 3.46-1.38 1.56-1.32 7.77.85 16.25 5.67 16.93 6.08 26.71 9.75 22.08 8.29 23.01 8.7 29 13.5 7.3 5.85 8.23 9.75 12.45 11.37 2.99 1.15 5.43-.53 7.64-1.39 2.71-1.06 6.3-2.86 6.9-5.71.86-4.09-1.21-6.02-3.94-9.73-2.7-3.67 8.92-3.95 4.1-12.98-4.89-9.16-12.32-4.3-20.28-2.18-8.48 2.26-9.05 1.05-28.22-5-.14-.05-18.84-5.94-19.61-6.55 2.78-1.33 28.54-9.88 31.19-10.67z" fill="#ab2a25"/></svg>