<?xml version="1.0" encoding="UTF-8"?>
<svg id="Layer_2" xmlns="http://www.w3.org/2000/svg" viewBox="0 0 283.4 283.4">
  <g id="Layer_1-2" data-name="Layer_1">
    <g>
      <path d="M283.4,141.7c0,131.42-10.28,141.7-141.7,141.7S0,273.12,0,141.7,10.28,0,141.7,0s141.7,10.28,141.7,141.7Z" style="fill: #fff;"/>
      <g>
        <path d="M252.63,154.07c-.07-2.01,1.92-1.63,1.92-5.2l-.71-105.2c-.16-2.11-2.98-2.11-2.98-2.11-17.89.37-18.1,92.01-16.86,103.17.58,5.23,3.3,7.64,6.03,8.72.74.3,1.2.97,1.18,1.69l-2.57,78.43c-.15,4.53,3.29,8.29,7.61,8.29h0c4.32,0,7.75-3.77,7.61-8.29l-1.2-79.49Z" style="fill: #a4c954;"/>
        <path d="M43.96,83.63s-.06,0-.08,0c-.03,0-.05,0-.08,0-.03,0-.06,0-.08-.01-.03,0-.07-.01-.1-.02-.02,0-.04-.01-.06-.02-.28-.09-.57-.28-.88-.61-.18-.24-.27-.53-.28-.83l-.66-39.4c-.01-.6-.46-1.13-1.06-1.17-.64-.04-1.18.46-1.19,1.1l-.97,38.68c-.01.5-.28.97-.72,1.22-.53.3-.99.25-1.35.09-.51-.22-.82-.74-.84-1.29l-.97-38.01c-.01-.41-.19-.79-.5-1.05-.44-.37-1.07-.45-1.6-.15-.42.23-.67.67-.72,1.15-4.99,52.93-2.15,56.48-2.15,56.48.48,2.83,6.8,9.19,9.49,11.79.53.51.81,1.21.79,1.93l-3.58,119.28c-.15,4.95,3.29,9.07,7.61,9.07,4.32,0,7.75-4.12,7.61-9.07l-3.58-119.28c-.02-.72.26-1.42.79-1.93,2.69-2.6,9.01-8.97,9.49-11.79,0,0,2.84-3.55-2.15-56.48-.04-.47-.3-.92-.72-1.15-.53-.29-1.16-.22-1.6.15-.31.26-.49.64-.5,1.05l-.97,38.01c-.01.55-.33,1.06-.84,1.29-.36.16-.82.21-1.35-.09-.44-.25-.71-.72-.72-1.22l-.97-38.68c-.02-.63-.55-1.13-1.19-1.1-.6.04-1.05.57-1.06,1.17l-.66,39.4c0,.3-.1.59-.28.83-.3.33-.6.52-.88.61-.02,0-.04.01-.06.02-.03,0-.07.02-.1.02-.03,0-.06,0-.08.01-.03,0-.05,0-.08,0-.03,0-.06,0-.08,0" style="fill: #a4c954;"/>
        <path d="M142.95,101.63c12.27,0,23.8,4.78,32.48,13.45,8.68,8.68,13.45,20.21,13.45,32.48s-4.78,23.8-13.45,32.48c-8.68,8.68-20.21,13.45-32.48,13.45s-23.8-4.78-32.48-13.45c-8.68-8.68-13.45-20.21-13.45-32.48s4.78-23.8,13.45-32.48,20.21-13.45,32.48-13.45M142.95,61.18c-47.71,0-86.38,38.67-86.38,86.38s38.67,86.38,86.38,86.38,86.38-38.67,86.38-86.38-38.67-86.38-86.38-86.38h0Z" style="fill: #a4c954;"/>
      </g>
    </g>
  </g>
</svg>