<?xml version="1.0" encoding="UTF-8"?>
<svg id="Layer_2" xmlns="http://www.w3.org/2000/svg" viewBox="0 0 283.4 283.4">
  <g id="Layer_1-2" data-name="Layer_1">
    <g>
      <path d="M283.4,141.7c0,131.42-10.28,141.7-141.7,141.7S0,273.12,0,141.7,10.28,0,141.7,0s141.7,10.28,141.7,141.7Z" style="fill: #fff;"/>
      <g>
        <path d="M224.46,156.14c-184.11,0-183.29-.59-184.13.74-1.45,2.27,1.86,18.46,2.39,21.1,4.99,24.68,24.2,47.58,43,59.17,3.17,1.96,4.52,3.63,4.51,7.47,0,3.32.61,7.11,4.23,8.4,3.6,1.28.05.52,82.8.69,3.63,0,7.64.61,10.65-1.89,2.72-2.26,2.33-4.92,2.44-8.07.21-5.94,5.66-6.39,16.14-15.02,17.11-14.1,31.31-37.37,33.69-65.19.75-8.82,1.77-7.4-15.71-7.4ZM131.41,231.3v-22.9h-22.9c-1.99,0-3.61-1.62-3.61-3.61v-10.63c0-1.99,1.62-3.61,3.61-3.61h22.9v-22.9c0-1.99,1.62-3.61,3.61-3.61h10.63c1.99,0,3.61,1.62,3.61,3.61v22.9h22.9c1.99,0,3.61,1.62,3.61,3.61v10.63c0,1.99-1.62,3.61-3.61,3.61h-22.9v22.9c0,1.99-1.62,3.61-3.61,3.61h-10.63c-1.99,0-3.61-1.62-3.61-3.61ZM211.31,211.91c-14.14,15.98-23.72,16.96-27.96,23.05-3.64,5.23-1.86,9.61-4.3,9.14-79.78-2.58-2.88-1.81-1.53-2.97,1.05-.9,1.27-3.67,1.72-4.85,5.5-14.58,33.54-15.92,44.22-61.12.33-1.4.41-3.97,1.29-5.06,1.43-1.76,6.59-2.24,7.1.38.13.67-3.95,22.66-20.55,41.42Z" style="fill: #006333;"/>
        <path d="M111.08,103.63c-8.78-10.58-27.11-24.63-30.21-23.53.89,1.53,5.11,2.53,16.09,13.26,23.7,23.16,26.24,53.8,25.08,56.47-2.68-3.28-2.03-6.92-9.05-13.96-9.66-9.68-55.21-23.67-69.12-38.75-26.16-28.36-4.94-70.93-4.18-70.79,1.88.33,1.22,3.75,7.99,12,10.34,12.61,28.94,18.09,51.96,31.68,20.05,11.83,26.85,22.77,28.23,48.92.15,3.69-.98,15.06-2.11,17.58-1.73-2.38-2.5-18.21-14.68-32.88Z" style="fill: #006333;"/>
        <path d="M267.93,81.46c-2.18-16.24-25.52-18.01-30.63-2.7-1.19,3.58.46,7.71-1.45,10.95-1.3,2.2-7.67,10.64-37.52,53.47-5.39,7.73-8.02,6.58,13.91,6.58,20.33,0,17.32,1.4,22.01-8.3,6.76-13.98,15.06-29.4,18.36-36.18,1.54-3.17,2.49-5.72,5.8-7.23,6.53-2.99,10.49-9.28,9.51-16.59Z" style="fill: #006333;"/>
        <path d="M165.21,144.37c-25.94,3.54-27.32,4.01-30.23,5.56-2.55,1.35-4.22,3.82-6.73,5.15-.67-4.55,8.89-17.81,18.83-24.2,2.81-1.8,7.11-2.86,9.37-5.25-3.75-2.48-18.72,8.37-22.96,13.45-3.54,4.24-5.61,10.37-5.61,5.31,1.12-13.06,9.79-25.85,22.56-29.49,20.23-5.77,33.12-4.23,42.5-11.82,1.29-1.04,4.45-5.06,5.48-2.39.31.79.47,15.78-3.5,25.19-5.68,13.44-16.25,16.65-29.71,18.49Z" style="fill: #006333;"/>
      </g>
    </g>
  </g>
</svg>