<?xml version="1.0" encoding="UTF-8"?>
<svg id="Layer_2" xmlns="http://www.w3.org/2000/svg" viewBox="0 0 283.4 283.4">
  <g id="Layer_1-2" data-name="Layer_1">
    <g>
      <path d="M283.4,141.7c0,131.42-10.28,141.7-141.7,141.7S0,273.12,0,141.7,10.28,0,141.7,0s141.7,10.28,141.7,141.7Z" style="fill: #fff;"/>
      <path d="M188.9,31.34c1.19,1.45,2.65,2.76,3.53,4.38,4.47,8.23,9.18,16.38,13.04,24.89,3.04,6.7,5.2,13.82,7.33,20.89,4.68,15.47,7.23,31.32,8.19,47.48.75,12.67.7,25.32-1.34,37.79-1.42,8.72-4.12,17.25-6.58,25.77-2.11,7.31-5.61,14.03-10.18,20.16-7.54,10.12-17.15,17.21-29.38,20.78-13.09,3.82-26.25,3.45-39.5,1.29-3.12-.51-6.22-1.13-9.31-1.81-.72-.16-1.34-.75-2.01-1.15.49-.6.87-1.34,1.47-1.78,4.68-3.43,9.86-6.33,13.99-10.32,5.77-5.57,11.08-11.69,16.01-18.03,5.51-7.08,9.91-14.93,13.13-23.37,3.23-8.45,6.97-16.74,9.65-25.36,2.28-7.33,3.41-15.02,4.99-22.56.81-3.87,1.5-7.77,2.25-11.65-.25-.06-.49-.12-.74-.18-.83,2.67-1.73,5.33-2.47,8.03-2.52,9.26-6.01,18.18-10.5,26.61-4.64,8.71-9.6,17.31-15.1,25.49-4.52,6.73-9.86,12.95-15.15,19.12-10.18,11.89-22.57,21.32-34.89,30.83-7.22,5.58-13.09,12.49-18.08,20.13-2.36,3.62-2.74,3.79-6.42,1.4-2.44-1.59-4.79-3.31-7.18-4.97-1.52-1.06-1.86-2.45-.65-3.83,5.41-6.18,10.81-12.39,16.42-18.38,2.09-2.23,2.39-2.37.12-4.37-6.22-5.48-11.96-11.49-16.06-18.65-3.31-5.8-5.84-12.11-8.13-18.4-2.48-6.82-3.51-14.02-3.4-21.31.17-10.5,2.61-20.5,8-29.51,4.91-8.2,11.58-14.79,19.63-20.19,8.91-5.99,18.76-9.48,28.77-12.86,13.82-4.66,27.17-10.4,39.37-18.47,9.3-6.16,17.42-13.68,23.29-23.25,3.8-6.19,6.74-12.82,6.43-20.41-.06-1.34.4-2.7.63-4.05.27-.06.54-.12.81-.18Z" style="fill: #a4c954;"/>
    </g>
  </g>
</svg>