<?xml version="1.0" encoding="UTF-8"?>
<svg id="Layer_2" xmlns="http://www.w3.org/2000/svg" viewBox="0 0 283.4 283.4">
  <g id="Layer_1-2" data-name="Layer_1">
    <g>
      <path d="M283.4,141.7c0,131.42-10.28,141.7-141.7,141.7S0,273.12,0,141.7,10.28,0,141.7,0s141.7,10.28,141.7,141.7Z" style="fill: #fff;"/>
      <g>
        <path d="M224.54,61.98c-.45,4.3-1.16,8.58-1.29,12.89-.4,13.15,2.8,25.49,8.6,37.28,4.34,8.83,10.51,16.11,17.82,22.51,2.37,2.08,4.96,3.91,7.46,5.84,1.45,1.12,1.71,2.08-.04,3.26-18.67,12.58-29.87,30.03-33.52,52.18-1.38,8.4-1.27,16.89.29,25.32.58,3.14-.03,3.77-3.25,3.16-9.09-1.72-18.21-1.89-27.3-.2-9.48,1.76-18.37,5.1-26.72,10.04-9.51,5.63-16.92,13.32-23.37,22.12-2.04,2.79-2.37,2.62-4.29-.24-4.33-6.45-9.44-12.28-15.61-17.02-9.43-7.25-20.02-12.17-31.64-14.74-9.77-2.17-19.6-2.44-29.46-.44-3.37.68-4.15-.09-3.52-3.42,2.7-14.17,1.4-28.03-3.7-41.45-3.51-9.23-8.41-17.76-15.66-24.65-4.07-3.87-8.42-7.47-12.69-11.13-2.1-1.8-2.12-2.56.12-4.12,12.61-8.78,21.98-20.28,27.96-34.36,5.9-13.9,7.03-28.43,4.42-43.28-.51-2.93.02-3.41,2.98-2.88,10.77,1.93,21.59,2.08,32.22-.52,12.19-2.99,23.21-8.43,32.74-16.81,4.99-4.39,9.19-9.34,12.89-14.79,1.31-1.94,2.41-1.95,3.9-.1,2.5,3.1,4.87,6.31,7.47,9.32,5.43,6.26,11.79,11.36,19.09,15.37,14.58,8,30.14,10.58,46.54,8.81,1.65-.18,3.3-.38,4.95-.58,2.04-.26,3.07.5,2.59,2.65ZM141.96,218.12c41.9.35,76.18-34.52,76.35-76.06.17-42.91-34.52-77.34-76.71-77.1-42.95.25-76.71,33.42-76.73,77.02-.01,41.64,34.24,76.75,77.09,76.13Z" style="fill: #f2b849;"/>
        <path d="M141.75,79.78c34.19-.14,62.03,28,61.84,61.93-.19,34.51-27.23,61.26-61.01,61.76-35.41.52-62.29-26.99-62.81-60.83-.54-35.48,27.58-62.93,61.98-62.86Z" style="fill: #f2b849;"/>
      </g>
    </g>
  </g>
</svg>