<?xml version="1.0" encoding="UTF-8"?>
<svg id="Layer_2" xmlns="http://www.w3.org/2000/svg" viewBox="0 0 283.4 283.4">
  <g id="Layer_1-2" data-name="Layer_1">
    <g>
      <path d="M283.4,141.7c0,131.42-10.28,141.7-141.7,141.7S0,273.12,0,141.7,10.28,0,141.7,0s141.7,10.28,141.7,141.7Z" style="fill: #fff;"/>
      <path d="M203.95,188.17c.7,2.54,1.39,5.09,2.11,7.63,1.41,4.96,2.86,9.9,4.26,14.86,1.84,6.49-1.01,12-6.84,13.28-4.66,1.02-9.13-1.37-10.67-6.03-1.57-4.73-2.87-9.55-4.22-14.35-2.54-9.04-4.93-18.12-7.66-27.1-.49-1.61-2.05-3.25-3.56-4.14-7.79-4.63-15.72-9.04-23.61-13.5-.92-.52-1.9-.94-3.19-1.58-.15,1.01-.33,1.7-.33,2.4-.02,9.65-.07,19.31.06,28.96.02,1.25.67,2.79,1.55,3.69,6.55,6.72,13.22,13.32,19.86,19.95,3.64,3.64,7.42,7.14,10.87,10.95,3.24,3.59,2.82,9.14-.57,12.45-3.43,3.36-8.91,3.77-12.46.49-5.74-5.31-11.23-10.89-16.78-16.39-.57-.57-.84-1.44-1.25-2.17-.35.2-.7.4-1.04.6-.08.91-.22,1.83-.23,2.74-.02,8.16-.08,16.31.01,24.47.05,4.2-1.78,7.37-5.38,9.14-3.71,1.83-7.49,1.36-10.67-1.58-2.06-1.91-2.95-4.35-2.95-7.14,0-8.07,0-16.15,0-24.22,0-.97-.09-1.94-.73-3.27-2.66,2.6-5.3,5.22-7.98,7.8-3.46,3.34-6.79,6.85-10.46,9.94-4.2,3.53-9.35,2.99-12.93-.93-3.29-3.6-3.12-9.08.57-12.83,5.83-5.92,11.78-11.73,17.63-17.63,4.39-4.43,8.74-8.9,13.03-13.43.62-.66,1.11-1.75,1.11-2.64,0-9.07-.12-18.13-.21-27.2,0-.72-.12-1.45-.21-2.5-1.62.85-3.01,1.49-4.3,2.29-7.09,4.35-14.32,8.5-21.13,13.26-1.78,1.24-2.55,4.31-3.2,6.7-1.68,6.16-2.97,12.43-4.52,18.63-1.61,6.45-3.35,12.86-4.99,19.3-1.02,3.99-5.12,7.18-8.96,6.9-5-.36-8.74-3.64-9.11-8.24-.14-1.79.05-3.67.46-5.42,1.58-6.8,3.31-13.56,4.97-20.33.15-.61.15-1.26.29-2.5-2.24,1.27-4.07,2.25-5.85,3.33-5.68,3.46-11.25,7.1-17.03,10.36-2.45,1.38-5.06,2.98-8.23,2.03-4.43-1.32-7.2-4.3-7.56-8.59-.37-4.47,2.16-7.36,5.67-9.51,7.45-4.56,14.96-9.02,22.43-13.54.11-.06.12-.28.32-.78-2.55-.72-5.05-1.51-7.58-2.13-5.5-1.33-11.03-2.49-16.52-3.87-4.4-1.11-7.1-4.65-7.36-9.29-.19-3.35,2.59-7.7,6.23-8.85,1.88-.59,4.19-.64,6.12-.17,9.45,2.31,18.82,4.95,28.26,7.34,4.43,1.12,8.92,2.01,13.41,2.89.79.15,1.81-.1,2.52-.51,8.08-4.79,16.11-9.65,24.17-14.48,3.14-1.88,3.2-2.35.03-4.15-8.02-4.55-16.04-9.11-24.17-13.46-1.31-.7-3.27-.82-4.75-.46-6.05,1.5-12.02,3.3-18.03,4.97-7.53,2.09-15.03,4.3-22.61,6.17-5.46,1.35-10.13-1.72-11.36-7.02-1.19-5.14,1.69-9.73,6.99-11.2,7.14-1.97,14.27-3.97,21.4-5.98.76-.21,1.48-.55,2.73-1.03-1.99-1.24-3.49-2.24-5.05-3.12-6.44-3.66-12.92-7.25-19.34-10.93-4.88-2.79-6.26-7.7-3.74-12.87,2.18-4.47,6.75-6.1,11.85-3.9,3.27,1.41,6.37,3.24,9.49,4.98,4.72,2.64,9.39,5.36,14.09,8.03.48.27,1.03.41,2.05.8-.42-2-.68-3.62-1.11-5.18-1.7-6.08-3.44-12.15-5.21-18.21-1.59-5.43,1.36-11.14,6.61-12.68,4.73-1.39,10.06,1.72,11.59,7.04,2.83,9.9,5.48,19.85,8.23,29.76,1.07,3.85,2.15,7.69,3.35,11.49.28.88.93,1.88,1.7,2.32,8.5,4.91,17.06,9.72,25.61,14.55.19.11.48.06,1.05.12.1-.88.28-1.74.29-2.59.02-9.24,0-18.48.04-27.71,0-1.87-.59-3.23-1.97-4.58-4.34-4.24-8.43-8.74-12.73-13.02-5.42-5.4-11-10.64-16.42-16.03-3.85-3.82-4.37-8.85-1.52-12.91,2.66-3.8,8.84-5.29,12.4-2.35,4.47,3.68,8.43,7.99,12.62,12.01,2.31,2.22,4.63,4.43,7.43,7.09.08-1.52.17-2.39.17-3.25.01-7.57,0-15.15.02-22.72.02-5.65,4.26-9.94,9.73-9.9,5.04.04,9.18,4.44,9.21,9.88.03,7.57,0,15.15.02,22.72,0,.87.07,1.75.14,3.2,1.25-1.07,2.08-1.7,2.82-2.44,4.7-4.71,9.41-9.42,14.06-14.18,3.81-3.9,8.39-4.9,12.65-2.65,4.87,2.57,6.62,9.02,3.1,13.23-3.72,4.45-7.96,8.47-12.06,12.6-6.5,6.55-13.08,13.02-19.57,19.58-.58.59-1.07,1.58-1.07,2.39-.06,10.57-.02,21.14,0,31.7,0,.15.11.31.33.88,3-1.78,5.95-3.51,8.88-5.28,5.97-3.6,11.97-7.17,17.86-10.9,1.09-.69,2.23-1.94,2.54-3.14,2.86-11.11,5.51-22.27,8.29-33.39.86-3.45,1.62-6.98,2.97-10.25,1.66-4.03,5.86-5.76,10.43-4.88,3.73.71,6.79,4.29,7.06,8.35.07,1.07.09,2.2-.17,3.22-1.71,6.86-3.51,13.69-5.25,20.53-.3,1.18-.46,2.4-.79,4.18,1.27-.63,2.07-.97,2.81-1.41,6.35-3.8,12.65-7.67,19.03-11.42,5.29-3.11,9.4-2.71,12.87,1.05,3.82,4.13,3.43,10.23-1.18,13.54-3.5,2.51-7.33,4.59-11.01,6.85-3.41,2.09-6.83,4.14-10.23,6.24-.61.38-1.12.9-2.07,1.67,2.91.75,5.35,1.4,7.81,2.01,5.89,1.47,11.82,2.8,17.66,4.44,3.84,1.08,7.28,6.1,6.72,9.19-1.05,5.78-4.42,9.04-9.67,8.78-2.86-.14-5.71-.92-8.53-1.59-9.3-2.22-18.58-4.53-27.87-6.8-1.61-.39-3.33-.52-4.83-1.16-3.42-1.44-6.21-.24-9.07,1.52-7.51,4.62-15.08,9.15-22.62,13.73-.4.25-.73.62-1.45,1.25,1.6.88,2.95,1.59,4.28,2.35,7.7,4.44,15.38,8.94,23.13,13.29.96.54,2.44.71,3.51.42,12.85-3.45,25.69-6.93,38.47-10.61,3.64-1.05,7.1-1.97,10.5.38,2.66,1.85,4.49,4.4,4.26,7.7-.27,3.9-1.65,7.48-5.84,8.76-6.68,2.04-13.43,3.84-20.15,5.75-1.58.45-3.15.89-5.49,1.55,1.76,1.19,2.88,2.08,4.12,2.77,6.01,3.38,12.09,6.65,18.07,10.08,4.56,2.62,6.65,7.67,5.11,11.84-1.96,5.27-8.28,7.91-13.39,5.21-6.6-3.49-13-7.35-19.49-11.04-1.13-.64-2.27-1.24-3.41-1.87-.18.18-.36.36-.54.54Z" style="fill: #44b8cf;"/>
    </g>
  </g>
</svg>