<?xml version="1.0" encoding="UTF-8"?>
<svg xmlns="http://www.w3.org/2000/svg" version="1.1" viewBox="0 0 272.9 35.6">
  <!-- Generator: Adobe Illustrator 28.7.1, SVG Export Plug-In . SVG Version: 1.2.0 Build 142)  -->
  <g>
    <g id="Layer_1">
      <path d="M3,18.1H1v1.7h6.1v-1.1h1v3.3h-1v-1H1v1.7h2v1H0v-6.6h3v1Z"/>
      <path d="M2.3,12.6c0-1.1.6-1.6,1.7-1.6h3.1v-.9h1v2.1h-3.7c-.4,0-.7,0-.9.2s-.2.3-.2.5c0,.4.2.9.7,1.6h3.1v-1h1v3.1h-1v-1H1v1H0v-2.1h3.1c-.5-.7-.8-1.3-.8-1.9h0Z"/>
      <path d="M5.6,3.5v4.7c.5,0,1-.3,1.3-.6.3-.4.4-.8.4-1.3s0-.7-.2-1-.4-.6-.7-.8l.4-1c.5.3.9.7,1.1,1.2.2.5.4,1.1.4,1.6s-.1,1.1-.4,1.6-.6.9-1.1,1.1-1,.4-1.6.4-1.1-.1-1.6-.4-.8-.6-1.1-1.1-.4-.9-.4-1.5,0-1.1.4-1.6c.2-.4.7-.8,1.1-1.1.5-.2,1.1-.4,1.7-.4h0s.3.2.3.2ZM3.2,6.5c0,.4,0,.8.4,1.1.4.3.7.5,1.1.6v-3.6c-.4,0-.8.3-1.1.7-.3.3-.4.7-.4,1.2Z"/>
      <path d="M29.3,8V3.6h-10v7.9h8.6v3.3h-8.6v8.7h3.4v3.3h-10.7v-3.3h3.4V3.6h-3.4V.3h20.6v7.8h-3.3Z"/>
      <path d="M50.3,17.6c0,1.8-.4,3.5-1.3,4.9s-2,2.7-3.5,3.6-3.1,1.3-4.9,1.3-3.5-.4-5-1.3-2.6-2-3.5-3.6c-.8-1.5-1.2-3.1-1.2-4.9s.4-3.6,1.2-5,2-2.6,3.5-3.5c1.5-.8,3.2-1.3,5-1.3s3.5.4,5,1.3c1.5.9,2.6,2.1,3.5,3.6s1.3,3.1,1.3,4.9h0ZM40.6,23.9c1.1,0,2-.3,3-.8.9-.6,1.6-1.3,2.1-2.3.5-.9.8-2,.8-3.1s-.2-2.1-.8-3.1c-.5-1-1.2-1.7-2.1-2.3-.9-.6-1.9-.9-3-.9s-2,.3-3,.9-1.6,1.3-2.1,2.3-.8,2-.8,3.1.2,2.1.8,3.1,1.2,1.7,2.1,2.3,1.9.8,3,.8h0Z"/>
      <path d="M58.8,19.4v4.2h4v3.3h-11.4v-3.3h3.7v-12h-3.7v-3.3h6.6v4.2c.7-1.7,1.7-2.8,2.8-3.5,1.1-.6,2.7-1,4.7-1h.8v3.7h-.8c-2,0-3.5.2-4.4.8-1,.5-1.6,1.3-1.9,2.3s-.5,2.5-.5,4.5h.1Z"/>
      <path d="M84.2,14.8v8.7h3.1v3.3h-6.3v-2.3c-1.8,1.7-3.7,2.6-5.9,2.6s-2.2-.2-3.1-.8-1.7-1.2-2.3-2.1-.9-1.9-.9-3,.3-2.2.9-3.1,1.5-1.6,2.5-2.1,2.1-.7,3.2-.7c1.8,0,3.5.5,5.1,1.6v-2c0-1.5-.3-2.5-.9-3.1s-1.6-.9-3-.9-1.8.2-2.5.5-1.2.9-1.7,1.6l-3.5-.9c.8-1.5,1.9-2.6,3.2-3.3,1.4-.7,2.9-1.1,4.8-1.1s4.3.6,5.4,1.7c1.2,1.1,1.7,2.9,1.7,5.4h.2ZM75.6,24.3c1.8,0,3.5-.7,5-2.2v-2.1c-1.6-1.2-3.2-1.9-4.8-1.9s-1.8.3-2.5.9-1,1.4-1,2.3.3,1.6.9,2.2,1.4.9,2.3.9h0Z"/>
      <path d="M104,11v-2.7h7v3.3h-3.4v13.9c0,3.2-.8,5.7-2.4,7.5s-4,2.6-7.1,2.6-5.5-.8-7.6-2.5l2.3-2.6c.8.6,1.7,1.1,2.5,1.4s1.8.5,2.8.5c1.9,0,3.3-.6,4.3-1.7s1.6-2.6,1.6-4.5v-1.7c-.8.9-1.8,1.7-3,2.2s-2.4.8-3.7.8-3.3-.4-4.6-1.3c-1.4-.9-2.4-2-3.2-3.5s-1.2-3-1.2-4.7.4-3.4,1.2-4.9,1.9-2.7,3.3-3.6c1.4-.9,3-1.4,4.6-1.4s2.4.2,3.4.7c1.1.5,2.1,1.2,3.1,2.2h0ZM98,24.1c1.2,0,2.2-.3,3.1-.9s1.7-1.4,2.1-2.3.8-2,.8-3.2-.2-2-.8-3-1.2-1.8-2.1-2.3-2-.9-3.1-.9-2.1.3-3,.9-1.6,1.4-2.1,2.3-.8,2-.8,3.2.2,2.2.7,3.2,1.2,1.7,2,2.3,1.9.8,3,.8h.2Z"/>
      <path d="M132.4,18.5h-15.5c.2,1.8.9,3.2,2,4.2s2.5,1.6,4.2,1.6,2.3-.2,3.4-.8c1-.5,1.9-1.3,2.6-2.3l3.2,1.5c-1,1.6-2.3,2.8-4,3.6-1.7.8-3.4,1.2-5.4,1.2s-3.8-.4-5.3-1.3-2.7-2-3.6-3.5-1.3-3.2-1.3-5,.4-3.5,1.3-5,2-2.7,3.5-3.5,3.1-1.3,4.9-1.3,3.7.4,5.1,1.3,2.6,2.1,3.4,3.7,1.3,3.5,1.4,5.7h.1ZM122.6,10.8c-1.4,0-2.6.5-3.6,1.4s-1.7,2.1-2,3.7h11.6c-.3-1.5-1.1-2.7-2.1-3.7s-2.4-1.4-3.8-1.4h0Z"/>
      <path d="M141.9,19.4v4.2h4v3.3h-11.4v-3.3h3.7v-12h-3.7v-3.3h6.6v4.2c.7-1.7,1.7-2.8,2.7-3.5s2.7-1,4.7-1h.8v3.7h-.8c-2,0-3.5.2-4.4.8s-1.6,1.3-1.9,2.3-.5,2.5-.5,4.5h.2,0Z"/>
      <path d="M166.3,9.1v-.8h3.2v6.1h-3.2v-1.1c-1.1-1.5-2.5-2.3-4.3-2.3s-1.8.2-2.3.6-.9,1-.9,1.7.2,1.1.7,1.4c.5.3,1.5.6,3.1.9l2.4.5c3.7.7,5.5,2.4,5.5,5.4s-.7,3.1-2,4.1-3.1,1.6-5.3,1.6-1.7-.1-2.6-.4-1.6-.6-2.1-.9v1h-3.2v-6.3h3.2v.6c.2.9.7,1.6,1.5,2.1s1.8.8,2.8.8,2.1-.2,2.8-.6,1-1,1-1.9-.2-1.1-.8-1.4c-.5-.3-1.6-.6-3.3-.9l-1.9-.4c-1.9-.4-3.2-1-4.1-2s-1.3-2.1-1.3-3.5.3-2.1,1-2.9,1.5-1.4,2.4-1.9c1-.4,2-.6,3.1-.6,1.8,0,3.3.3,4.5,1h.1Z"/>
      <path d="M202.2,13.3c0,4.5-1.4,8-4.1,10.2-2.7,2.3-6.8,3.4-12.2,3.4h-9.9v-3.3h3.6V3.7h-3.6V.4h10.1c5.4,0,9.5,1,12.1,3.1,2.6,2.1,4,5.3,4,9.8h0ZM197.8,13.5c0-2.2-.4-4.1-1.2-5.5-.8-1.4-2-2.5-3.8-3.2s-4-1.1-6.8-1.1h-2.5v20h2.5c4.1,0,7.1-.8,9-2.4,1.9-1.7,2.8-4.2,2.8-7.7h0Z"/>
      <path d="M214.3,23.7v3.2h-9.4v-3.2h2.9v-12h-2.9v-3.3h6.5v15.3h2.9ZM211.6,2.2c0,.6-.2,1.1-.6,1.6s-.9.6-1.6.6-1.1-.2-1.5-.6-.6-.9-.6-1.6.2-1.1.6-1.6c.4-.4.9-.6,1.5-.6s1.2.2,1.6.6c.4.4.6.9.6,1.6h0Z"/>
      <path d="M232.2,15v8.7h3.1v3.2h-6.3v-2.3c-1.8,1.7-3.7,2.6-5.9,2.6s-2.2-.2-3.1-.8-1.7-1.2-2.3-2.1-.9-1.9-.9-3,.3-2.2.9-3.1c.6-.9,1.5-1.6,2.5-2.1s2.1-.7,3.2-.7c1.8,0,3.5.5,5.1,1.6v-2c0-1.5-.3-2.5-.9-3.1s-1.6-.9-3-.9-1.8.2-2.5.5-1.2.9-1.7,1.6l-3.5-.9c.8-1.5,1.9-2.6,3.2-3.3s2.9-1.1,4.8-1.1,4.3.6,5.4,1.7c1.2,1.1,1.7,2.9,1.7,5.3h0s.2.2.2.2ZM223.6,24.5c1.8,0,3.5-.7,5-2.2v-2.1c-1.6-1.2-3.2-1.9-4.8-1.9s-1.8.3-2.5.9-1,1.4-1,2.3.3,1.6.9,2.2,1.4.9,2.3.9h.1Z"/>
      <path d="M244.1,19.5v4.2h4v3.2h-11.4v-3.2h3.7v-12h-3.7v-3.3h6.6v4.2c.7-1.7,1.7-2.8,2.7-3.5s2.7-1,4.7-1h.8v3.7h-.8c-2,0-3.5.2-4.4.8-1,.5-1.6,1.3-1.9,2.3s-.5,2.5-.5,4.5h.2,0Z"/>
      <path d="M258.7,11.7l4,10.5,3.9-10.5h-2.5v-3.3h8.8v3.3h-2.7l-7.2,18.5c-1.2,3-4.1,5-7.4,5H114v-3.2h141.2c2.1,0,4-1.3,4.7-3.2l.9-2.2-6-14.9h-3.1v-3.3h9.3v3.3h-2.3,0Z"/>
      <path d="M154.4,8.3c0,1,0,1.8-.7,2.5-.6.8-1.3.8-2.2.8h-.5v-1.9h.3c1.1,0,1.2-.9,1.2-1.7v-.4h-1.5v-3.9h3.5v4.4Z"/>
    </g>
  </g>
</svg>